<?xml version="1.0" encoding="utf-8"?>
<!-- Generator: Adobe Illustrator 25.4.1, SVG Export Plug-In . SVG Version: 6.00 Build 0)  -->
<svg version="1.1" id="Ebene_1" xmlns="http://www.w3.org/2000/svg" xmlns:xlink="http://www.w3.org/1999/xlink" x="0px" y="0px"
	 width="530px" height="734px" viewBox="0 0 530 734" style="enable-background:new 0 0 530 734;" xml:space="preserve">
<style type="text/css">
	.st0{filter:url(#Adobe_OpacityMaskFilter);}
	.st1{fill:url(#SVGID_00000122688272946348340860000000251141675234641807_);}
	.st2{mask:url(#SVGID_1_);}
	.st3{clip-path:url(#SVGID_00000029768468723242019950000016757403895776902820_);fill:#FFFFFF;}
</style>
<g>
	<defs>
		<filter id="Adobe_OpacityMaskFilter" filterUnits="userSpaceOnUse" x="47.527" y="144" width="434.946" height="458.596">
			<feFlood  style="flood-color:white;flood-opacity:1" result="back"/>
			<feBlend  in="SourceGraphic" in2="back" mode="normal"/>
		</filter>
	</defs>
	<mask maskUnits="userSpaceOnUse" x="47.527" y="144" width="434.946" height="458.596" id="SVGID_1_">
		<g class="st0">
			
				<linearGradient id="SVGID_00000038411965292915673810000017028770799490673827_" gradientUnits="userSpaceOnUse" x1="-417.328" y1="752.5583" x2="-416.328" y2="752.5583" gradientTransform="matrix(0 458.5962 458.5962 0 -344855.375 191529.0156)">
				<stop  offset="0" style="stop-color:#FFFFFF"/>
				<stop  offset="1" style="stop-color:#000000"/>
			</linearGradient>
			
				<rect x="56.527" y="151" style="fill:url(#SVGID_00000038411965292915673810000017028770799490673827_);" width="416.946" height="450.596"/>
		</g>
	</mask>
	<g class="st2">
		<g>
			<defs>
				<rect id="SVGID_00000168118740029464176390000003992411654148371854_" x="47.527" y="144" width="434.946" height="458.596"/>
			</defs>
			<clipPath id="SVGID_00000150812618518730884460000008955256552454381230_">
				<use xlink:href="#SVGID_00000168118740029464176390000003992411654148371854_"  style="overflow:visible;"/>
			</clipPath>
			<path style="clip-path:url(#SVGID_00000150812618518730884460000008955256552454381230_);fill:#FFFFFF;" d="M376.6868,507.2083
				c0,7.114-5.691,12.806-12.806,12.806h-17.075c-7.115,0-12.807-5.692-12.807-12.806v-37.471c0-7.115,5.692-12.806,12.807-12.806
				h17.075c7.115,0,12.806,5.691,12.806,12.806V507.2083z M376.6868,390.5273c0,7.115-5.691,12.806-12.806,12.806h-17.075
				c-7.115,0-12.807-5.691-12.807-12.806v-37.471c0-7.114,5.692-12.806,12.807-12.806h17.075c7.115,0,12.806,5.692,12.806,12.806
				V390.5273z M327.3838,230.2953l-0.525,0.553l-26.084,24.645l6.159,34.81c0.894,5.052-4.286,8.959-9.022,7.13l-0.674-0.3
				l-32.238-16.432l-32.239,16.432c-4.679,2.385-10.112-1.184-9.782-6.117l0.087-0.713l6.152-34.81l-26.077-24.645
				c-3.777-3.569-1.972-9.663,2.943-10.902l0.76-0.148l36.045-5.081l16.119-31.664c2.451-4.816,9.533-4.816,11.984,0l16.112,31.664
				l36.052,5.081C328.3748,220.5333,330.6088,226.4913,327.3838,230.2953 M196.4488,507.2083c0,7.114-5.692,12.806-12.806,12.806
				h-17.075c-7.115,0-12.807-5.692-12.807-12.806v-37.471c0-7.115,5.692-12.806,12.807-12.806h17.075
				c7.114,0,12.806,5.691,12.806,12.806V507.2083z M196.4488,390.5273c0,7.115-5.692,12.806-12.806,12.806h-17.075
				c-7.115,0-12.807-5.691-12.807-12.806v-37.471c0-7.114,5.692-12.806,12.807-12.806h17.075c7.114,0,12.806,5.692,12.806,12.806
				V390.5273z M243.8798,353.0563c0-7.114,5.692-12.806,12.807-12.806h17.075c7.114,0,12.806,5.692,12.806,12.806v37.471
				c0,7.115-5.692,12.806-12.806,12.806h-17.075c-7.115,0-12.807-5.691-12.807-12.806V353.0563z M243.8798,469.7373
				c0-7.115,5.692-12.806,12.807-12.806h17.075c7.114,0,12.806,5.691,12.806,12.806v37.471c0,7.114-5.692,12.806-12.806,12.806
				h-17.075c-7.115,0-12.807-5.692-12.807-12.806V469.7373z M461.1148,548.9473h-22.293v-369.489
				c0-15.652-12.806-28.459-28.458-28.459h-289.805c-15.652,0-28.458,12.807-28.458,28.459v369.489h-22.767
				c-7.115,0-12.807,5.692-12.807,12.807v27.035c0,7.115,5.692,12.807,12.807,12.807h391.3069c7.114,0,12.806-5.692,12.806-12.807
				v-27.035C473.9208,554.6393,467.7548,548.9473,461.1148,548.9473"/>
		</g>
	</g>
</g>
</svg>
